Coordinates
version=1
nRows=6
nColumns=36
inDegrees=yes

Units are S.I. units (second, meters, Newtons, ...)
If the header above contains a line with 'inDegrees', this indicates whether rotational values are in degrees (yes) or radians (no).

endheader
time	pelvis_tilt	pelvis_list	pelvis_rotation	pelvis_tx	pelvis_ty	pelvis_tz	hip_flexion_r	hip_adduction_r	hip_rotation_r	knee_angle_r	knee_angle_r_beta	ankle_angle_r	subtalar_angle_r	mtp_angle_r	hip_flexion_l	hip_adduction_l	hip_rotation_l	knee_angle_l	knee_angle_l_beta	ankle_angle_l	subtalar_angle_l	mtp_angle_l	lumbar_extension	lumbar_bending	lumbar_rotation	arm_flex_r	arm_add_r	arm_rot_r	elbow_flex_r	pro_sup_r	arm_flex_l	arm_add_l	arm_rot_l	elbow_flex_l	pro_sup_l
      3.43750000	     -2.68672716	     -1.54253268	      3.02120429	     -0.00459365	      0.76267786	     -0.09453320	     54.99754256	     -5.48418085	      1.75339108	     78.69193853	      1.37343342	     17.53547690	    -25.03563559	     -7.49999987	     54.94446220	     -6.59543865	      6.59434931	     78.00048810	      1.36136534	     20.51681950	    -13.58201808	     -7.49999987	    -31.19332330	      1.63481283	     -6.75103607	      1.38900019	    -14.16064318	     -7.67985736	     53.04422763	     85.34529050	      5.22101745	    -14.70337515	     -5.21077289	     72.59431906	     84.03313999
      3.44166670	     -3.39850094	     -1.55443400	      2.97972822	     -0.00226259	      0.75945042	     -0.09274105	     56.16428105	     -5.54048103	      1.69265437	     79.48617795	      1.38729552	     18.13636127	    -24.78244750	     -7.49999987	     56.03756969	     -6.75919265	      6.46533365	     78.71832553	      1.37389396	     21.31602164	    -12.90596435	     -7.49999987	    -31.01198190	      1.55455216	     -6.58774924	      1.82494955	    -13.75135115	     -7.52933304	     51.22705035	     84.99704262	      5.39609358	    -14.54512056	     -5.34066740	     70.28296765	     83.78196197
      3.44583330	     -4.10671021	     -1.47598282	      3.03463062	     -0.00227374	      0.75558471	     -0.09593297	     57.32950063	     -5.91563705	      1.82204456	     80.32009924	      1.40185019	     18.71665549	    -23.97858393	     -7.49999987	     57.28897718	     -6.70022186	      6.24782693	     79.57320543	      1.38881443	     21.66387155	    -12.57690531	     -7.49999987	    -30.97290219	      1.58577862	     -6.60245275	      2.01698732	    -13.53064340	     -7.47358149	     50.32127470	     84.93463839	      5.35689424	    -14.29444133	     -5.65050049	     68.58295981	     83.74679668
      3.45000000	     -4.26548073	     -1.46633438	      3.11943780	     -0.00008177	      0.75100243	     -0.09423765	     57.73287041	     -6.15322811	      1.81664243	     81.03808061	      1.41438133	     20.11975889	    -22.75781640	     -7.49999987	     57.89398256	     -6.74239160	      6.18614731	     80.40401907	      1.40331486	     22.14832388	    -12.55152143	     -7.49999987	    -31.93790136	      1.57037407	     -6.45458348	      1.85260832	    -13.34042983	     -7.38513455	     50.60967896	     83.81381389	      5.33665395	    -14.35213329	     -5.71070435	     68.15995447	     82.68447993
      3.45416670	     -5.23913238	     -1.57136077	      3.06767331	      0.00285069	      0.74954077	     -0.09328687	     58.82226671	     -6.07071582	      1.85573497	     81.45946095	      1.42173580	     20.20037095	    -22.87466532	     -7.49999987	     59.05150499	     -7.06101973	      6.12173736	     81.03697610	      1.41436205	     22.46840576	    -12.52969260	     -7.49999987	    -31.04425310	      1.55508579	     -6.31579510	      2.39310310	    -13.01060503	     -6.80004364	     47.30494876	     85.04238401	      5.80038188	    -14.11069462	     -5.69516692	     64.16013762	     83.91490942
      3.45833330	     -5.71888586	     -1.66986491	      3.08513984	      0.00252067	      0.74750260	     -0.09023387	     59.32415847	     -5.93970232	      1.67617174	     81.70233803	      1.42597481	     20.66223544	    -22.70859046	     -7.49999987	     59.67162137	     -7.28723198	      6.19401846	     81.28444475	      1.41868119	     22.86769661	    -12.21135221	     -7.49999987	    -31.44592726	      1.49984519	     -6.15792315	      2.54565877	    -12.64654308	     -6.70108715	     46.48491696	     84.91655536	      5.94415344	    -14.09737794	     -5.99453798	     62.51413152	     83.80503779
